<?xml version="1.0" encoding="UTF-8" standalone="no"?>
<svg
   id="Layer_1"
   data-name="Layer 1"
   viewBox="0 0 549.15854 112.01"
   version="1.1"
   sodipodi:docname="Equal.svg"
   width="549.15857"
   height="112.01"
   inkscape:version="1.3.2 (091e20e, 2023-11-25, custom)"
   xmlns:inkscape="http://www.inkscape.org/namespaces/inkscape"
   xmlns:sodipodi="http://sodipodi.sourceforge.net/DTD/sodipodi-0.dtd"
   xmlns="http://www.w3.org/2000/svg"
   xmlns:svg="http://www.w3.org/2000/svg">
  <sodipodi:namedview
     id="namedview17"
     pagecolor="#ffffff"
     bordercolor="#000000"
     borderopacity="0.25"
     inkscape:showpageshadow="2"
     inkscape:pageopacity="0.0"
     inkscape:pagecheckerboard="0"
     inkscape:deskcolor="#d1d1d1"
     inkscape:zoom="1.3521309"
     inkscape:cx="216.32521"
     inkscape:cy="113.52451"
     inkscape:window-width="1920"
     inkscape:window-height="986"
     inkscape:window-x="2869"
     inkscape:window-y="-11"
     inkscape:window-maximized="1"
     inkscape:current-layer="Layer_1" />
  <defs
     id="defs1">
    <rect
       x="24.405922"
       y="21.447628"
       width="786.1665"
       height="164.92487"
       id="rect17" />
    <style
       id="style1">.cls-1{font-size:16.94px;font-family:Montserrat-Regular, Montserrat;}.cls-2{letter-spacing:-0.02em;}.cls-3{letter-spacing:-0.01em;}.cls-4{letter-spacing:0.01em;}.cls-5{letter-spacing:-0.01em;}.cls-6{fill:#042303;}.cls-7{font-size:65.89px;font-family:HighTowerText-Reg, High Tower Text;}.cls-10,.cls-7,.cls-8{fill:#052404;}.cls-8{font-size:30.16px;font-family:LombardiaScriptPERSONALUSE-Regular, Lombardia Script PERSONAL USE;}.cls-9{fill:none;stroke:#052404;stroke-miterlimit:10;}</style>
  </defs>
  <polyline
     class="cls-6"
     points="104.26 46.22 68 82.48 76.59 86.69 73.49 89.8 60.95 83.65 101.32 43.28 104.26 46.22"
     id="polyline9"
     transform="translate(-60.95,-41.99)" />
  <polyline
     class="cls-6"
     points="110.69 58.46 107.76 55.52 76.03 87.25 72.93 90.35 67.39 95.89 91.12 107.53 91.42 107.79 94.74 104.75 94.22 104.43 74.43 94.72 76.87 92.28 79.97 89.18 110.55 58.6 110.69 58.46"
     id="polyline10"
     transform="translate(-60.95,-41.99)" />
  <path
     class="cls-6"
     d="m 47.3,69.32 -10.09,-5 -3.1,3.11 8.59,4.21 -36.24,36.28 2.8,2.81 0.14,0.13 4.56,-4.57 0.2,-0.19 v 0 L 47.78,72.48 A 1.94,1.94 0 0 0 47.3,69.32 Z"
     id="path10" />
  <path
     class="cls-6"
     d="m 43.67,58.26 -21.71,-10.48 -3.11,3.1 20.2,9.75 -36.22,36.24 2.81,2.8 0.13,0.14 4.57,-4.57 0.2,-0.2 v 0 L 44.16,61.42 a 1.94,1.94 0 0 0 -0.49,-3.16 z"
     id="path11" />
  <path
     class="cls-6"
     d="m 1.73,100.91 -0.16,-2.6 c 0,0 1.27,-1.46 1.32,-1.49 l 2.93,2.94 c 0,0.05 -1.49,1.31 -1.49,1.31 l -2.6,-0.16"
     id="path12" />
  <path
     class="cls-6"
     d="m 5.48,111.85 -0.16,-2.6 c 0,0 1.27,-1.47 1.32,-1.5 l 2.93,2.94 c 0,0 -1.52,1.32 -1.52,1.32 l -2.6,-0.15"
     id="path13" />
  <path
     class="cls-6"
     d="m 44.43,0.16 0.16,2.6 c 0,0 -1.26,1.47 -1.31,1.5 L 40.34,1.32 C 40.34,1.27 41.83,0 41.83,0 l 2.6,0.16"
     id="path14" />
  <path
     class="cls-6"
     d="m 50.88,12.4 0.17,2.61 c 0,0 -1.26,1.46 -1.31,1.49 L 46.8,13.56 c 0,0 1.49,-1.31 1.49,-1.31 l 2.6,0.15"
     id="path15" />
  <text
     class="cls-7"
     id="text15"
     x="59.789139"
     y="77.459023"
     style="font-size:77.6778px;font-family:HighTowerText-Reg, 'High Tower Text';fill:#052404;stroke-width:1.85913;stroke-dasharray:none"><tspan
       style="font-style:normal;font-variant:normal;font-weight:normal;font-stretch:normal;font-size:88.0246px;font-family:'High Tower Text';-inkscape-font-specification:'High Tower Text, Normal';font-variant-ligatures:normal;font-variant-caps:normal;font-variant-numeric:normal;font-variant-east-asian:normal;stroke-width:1.85913;stroke-dasharray:none"
       id="tspan17">Sylvan Stays</tspan></text>
  <text
     xml:space="preserve"
     id="text17"
     style="font-style:normal;font-variant:normal;font-weight:normal;font-stretch:normal;font-size:96px;font-family:Sans;-inkscape-font-specification:'Sans, Normal';font-variant-ligatures:normal;font-variant-caps:normal;font-variant-numeric:normal;font-variant-east-asian:normal;white-space:pre;shape-inside:url(#rect17);fill:#000000"
     transform="translate(-60.95,-41.99)" />
</svg>
