<?xml version="1.0" encoding="UTF-8" standalone="no"?>
<svg
   id="Layer_1"
   data-name="Layer 1"
   viewBox="0 0 425.65 717.88"
   version="1.1"
   sodipodi:docname="Favicon.svg"
   inkscape:version="1.3.2 (091e20e, 2023-11-25, custom)"
   xmlns:inkscape="http://www.inkscape.org/namespaces/inkscape"
   xmlns:sodipodi="http://sodipodi.sourceforge.net/DTD/sodipodi-0.dtd"
   xmlns="http://www.w3.org/2000/svg"
   xmlns:svg="http://www.w3.org/2000/svg">
  <sodipodi:namedview
     id="namedview11"
     pagecolor="#ffffff"
     bordercolor="#000000"
     borderopacity="0.25"
     inkscape:showpageshadow="2"
     inkscape:pageopacity="0.0"
     inkscape:pagecheckerboard="0"
     inkscape:deskcolor="#d1d1d1"
     inkscape:zoom="1.7983507"
     inkscape:cx="212.69489"
     inkscape:cy="358.94"
     inkscape:window-width="2880"
     inkscape:window-height="1526"
     inkscape:window-x="-11"
     inkscape:window-y="-11"
     inkscape:window-maximized="1"
     inkscape:current-layer="Layer_1" />
  <defs
     id="defs1">
    <style
       id="style1">.cls-1{font-size:16.94px;font-family:Montserrat-Regular, Montserrat;}.cls-2{letter-spacing:-0.02em;}.cls-3{letter-spacing:-0.01em;}.cls-4{letter-spacing:-0.01em;}.cls-5{fill:#042303;}</style>
  </defs>
  <polyline
     class="cls-5"
     points="305.51 104.84 128.88 281.47 170.73 302 155.62 317.11 94.58 287.18 291.22 90.53 305.51 104.84"
     id="polyline5" />
  <polyline
     class="cls-5"
     points="336.85 164.47 322.56 150.17 168.03 304.69 152.92 319.81 125.91 346.81 241.51 403.51 242.99 404.78 259.17 389.95 256.62 388.4 160.22 341.11 172.11 329.22 187.22 314.1 336.18 165.15 336.85 164.47"
     id="polyline6" />
  <path
     class="cls-5"
     d="M324.94,421.91l-49.13-24.1-15.12,15.12,41.86,20.52L126,610l13.65,13.66.65.65L162.57,602l1-1,.17-.18L327.48,437.12A9.47,9.47,0,0,0,324.94,421.91Z"
     id="path6" />
  <path
     class="cls-5"
     d="M307.27,368.05,201.51,317,186.39,332.1l98.49,47.49L108.36,556.1,122,569.76l.64.65,22.25-22.25,1-1,.18-.17L309.81,383.26A9.47,9.47,0,0,0,307.27,368.05Z"
     id="path7" />
  <path
     class="cls-5"
     d="M103,575.81l-.76-12.66s6.14-7.16,6.39-7.28l14.32,14.3c-.13.25-7.28,6.4-7.28,6.4L103,575.81"
     id="path8" />
  <path
     class="cls-5"
     d="M121.25,629.06l-.77-12.66s6.15-7.16,6.4-7.28l14.31,14.3c-.12.25-7.27,6.4-7.27,6.4l-12.67-.76"
     id="path9" />
  <path
     class="cls-5"
     d="M311,85l.76,12.67s-6.15,7.15-6.4,7.28l-14.31-14.3c.13-.25,7.28-6.41,7.28-6.41L311,85"
     id="path10" />
  <path
     class="cls-5"
     d="M342.4,144.67l.77,12.66s-6.15,7.16-6.4,7.29l-14.31-14.31c.13-.25,7.28-6.4,7.28-6.4l12.66.76"
     id="path11" />
</svg>
