<svg id="Layer_1" data-name="Layer 1" xmlns="http://www.w3.org/2000/svg" viewBox="0 0 537.94 412.47"><defs><style>.cls-1,.cls-5{fill:none;stroke-miterlimit:10;}.cls-1{stroke:#000;}.cls-2{fill:#042303;}.cls-3{font-size:65.89px;font-family:HighTowerText-Reg, High Tower Text;}.cls-3,.cls-4,.cls-6{fill:#052404;}.cls-4{font-size:30.16px;font-family:LombardiaScriptPERSONALUSE-Regular, Lombardia Script PERSONAL USE;}.cls-5{stroke:#052404;}.cls-7{font-size:16.94px;font-family:Montserrat-Regular, Montserrat;}.cls-8{letter-spacing:-0.02em;}.cls-9{letter-spacing:-0.01em;}.cls-10{letter-spacing:0.01em;}.cls-11{letter-spacing:-0.01em;}</style></defs><line class="cls-1" x1="357.5" y1="164.28" x2="357.22" y2="164.57"/><polyline class="cls-2" points="125.19 111.08 50.43 185.84 68.15 194.52 61.75 200.92 35.92 188.25 119.14 105.02 125.19 111.08"/><polyline class="cls-2" points="138.45 136.32 132.4 130.26 67.01 195.66 60.61 202.06 49.18 213.49 98.1 237.49 98.73 238.02 105.58 231.75 104.5 231.09 63.7 211.08 68.73 206.04 75.13 199.65 138.17 136.6 138.45 136.32"/><path class="cls-2" d="M133.41,245.27l-20.79-10.2-6.4,6.4,17.72,8.69-74.71,74.7L55,330.64l.27.28,9.42-9.42.41-.41.07-.08,69.31-69.3A4,4,0,0,0,133.41,245.27Z"/><path class="cls-2" d="M125.94,222.48,81.17,200.87l-6.39,6.39,41.68,20.1L41.75,302.07l5.78,5.78.27.27,9.42-9.41.41-.42.07-.07L127,228.91A4,4,0,0,0,125.94,222.48Z"/><path class="cls-2" d="M39.47,310.41l-.32-5.36s2.6-3,2.71-3.08l6.06,6c-.06.11-3.08,2.71-3.08,2.71l-5.37-.32"/><path class="cls-2" d="M47.21,333l-.33-5.37s2.6-3,2.71-3.08l6.06,6.06c-.06.1-3.08,2.71-3.08,2.71L47.21,333"/><path class="cls-2" d="M127.51,102.69l.33,5.36s-2.61,3-2.71,3.08l-6.06-6c.05-.1,3.08-2.71,3.08-2.71l5.36.32"/><path class="cls-2" d="M140.8,127.94l.33,5.36s-2.6,3-2.71,3.08l-6.06-6c.06-.11,3.08-2.71,3.08-2.71l5.36.32"/><text class="cls-3" transform="translate(153.56 215.28)">Sylvan Stays</text><text class="cls-4" transform="translate(235.56 261.76)">Holidays Unlimited</text><line class="cls-5" x1="228.5" y1="229.36" x2="325.41" y2="229.36"/><line class="cls-5" x1="336.89" y1="229.36" x2="433.8" y2="229.36"/><path class="cls-6" d="M334.07,229.25l1-.93a.15.15,0,0,0-.08-.27l-1.47-.23a.16.16,0,0,1-.13-.18l.25-1.52a.16.16,0,0,0-.23-.17l-1.26.68a.16.16,0,0,1-.22-.07l-.58-1.2a.17.17,0,0,0-.29,0l-.63,1.26a.15.15,0,0,1-.21.07l-1.34-.69a.15.15,0,0,0-.22.17l.26,1.45a.16.16,0,0,1-.14.18l-1.4.19a.16.16,0,0,0-.09.27l1,1a.17.17,0,0,1,0,.23l-1,1a.16.16,0,0,0,.09.27l1.4.19a.18.18,0,0,1,.14.19l-.26,1.45a.15.15,0,0,0,.22.17l1.34-.69a.15.15,0,0,1,.21.07l.63,1.25a.16.16,0,0,0,.29,0l.58-1.2a.16.16,0,0,1,.22-.07l1.26.67a.15.15,0,0,0,.23-.16l-.25-1.52a.16.16,0,0,1,.13-.18l1.47-.23a.16.16,0,0,0,.08-.27l-1-.93A.15.15,0,0,1,334.07,229.25Z"/><text class="cls-7" transform="translate(213.41 388.01)"><tspan class="cls-8">P</tspan><tspan class="cls-9" x="11.78" y="0">r</tspan><tspan x="18.44" y="0">ima</tspan><tspan class="cls-10" x="50.97" y="0">r</tspan><tspan x="58.02" y="0">y </tspan><tspan class="cls-11" x="71.64" y="0">L</tspan><tspan x="81.48" y="0">ogo</tspan></text></svg>