<svg id="Layer_1" data-name="Layer 1" xmlns="http://www.w3.org/2000/svg" viewBox="0 0 514.59 426.2"><defs><style>.cls-1{font-size:16.94px;font-family:Montserrat-Regular, Montserrat;}.cls-2{letter-spacing:-0.02em;}.cls-3{letter-spacing:-0.01em;}.cls-4{letter-spacing:0.01em;}.cls-5{letter-spacing:-0.01em;}.cls-6{letter-spacing:0em;}.cls-7{letter-spacing:-0.02em;}.cls-8{fill:#042303;}.cls-9{font-size:65.89px;font-family:HighTowerText-Reg, High Tower Text;}.cls-10,.cls-12,.cls-9{fill:#052404;}.cls-10{font-size:30.16px;font-family:LombardiaScriptPERSONALUSE-Regular, Lombardia Script PERSONAL USE;}.cls-11{fill:none;stroke:#052404;stroke-miterlimit:10;}</style></defs><text class="cls-1" transform="translate(159.19 413.36)"><tspan class="cls-2">P</tspan><tspan class="cls-3" x="11.78" y="0">r</tspan><tspan x="18.44" y="0">ima</tspan><tspan class="cls-4" x="50.97" y="0">r</tspan><tspan x="58.02" y="0">y </tspan><tspan class="cls-5" x="71.64" y="0">L</tspan><tspan x="81.48" y="0">ogo St</tspan><tspan class="cls-6" x="136.09" y="0">a</tspan><tspan class="cls-5" x="146.13" y="0">c</tspan><tspan class="cls-7" x="155.53" y="0">k</tspan><tspan x="165.36" y="0">ed</tspan></text><polyline class="cls-8" points="281.83 40.06 207.08 114.82 224.79 123.5 218.39 129.9 192.56 117.23 275.79 34 281.83 40.06"/><polyline class="cls-8" points="295.1 65.3 289.05 59.24 223.65 124.64 217.25 131.04 205.82 142.47 254.75 166.47 255.37 167 262.22 160.73 261.14 160.07 220.34 140.06 225.37 135.02 231.77 128.63 294.81 65.58 295.1 65.3"/><path class="cls-8" d="M290.06,174.25l-20.8-10.2-6.39,6.4,17.71,8.69-74.71,74.7,5.78,5.78.27.28,9.42-9.42.41-.41.07-.08,69.31-69.3A4,4,0,0,0,290.06,174.25Z"/><path class="cls-8" d="M282.58,151.46l-44.76-21.62-6.4,6.4,41.68,20.1-74.71,74.71,5.78,5.78.27.27,9.42-9.41.41-.42.07-.07,69.31-69.31A4,4,0,0,0,282.58,151.46Z"/><path class="cls-8" d="M196.12,239.39l-.33-5.36s2.61-3,2.71-3.08l6.06,6.05c-.05.11-3.08,2.71-3.08,2.71l-5.36-.32"/><path class="cls-8" d="M203.85,261.93l-.33-5.37s2.61-3,2.71-3.08l6.06,6.06c0,.1-3.08,2.71-3.08,2.71l-5.36-.32"/><path class="cls-8" d="M284.15,31.67l.33,5.36s-2.6,3-2.71,3.08l-6.06-6c.06-.1,3.08-2.71,3.08-2.71l5.36.32"/><path class="cls-8" d="M297.45,56.92l.32,5.36s-2.6,3-2.71,3.08l-6.05-6c.05-.11,3.08-2.71,3.08-2.71l5.36.32"/><text class="cls-9" transform="translate(64.3 315.39)">Sylvan Stays</text><text class="cls-10" transform="translate(146.3 361.88)">Holidays Unlimited</text><line class="cls-11" x1="139.25" y1="329.48" x2="236.16" y2="329.48"/><line class="cls-11" x1="247.64" y1="329.48" x2="344.55" y2="329.48"/><path class="cls-12" d="M244.81,329.36l1-.93a.16.16,0,0,0-.09-.27l-1.47-.23a.16.16,0,0,1-.13-.18l.25-1.52a.15.15,0,0,0-.23-.16l-1.26.67a.16.16,0,0,1-.22-.07l-.58-1.2a.15.15,0,0,0-.28,0l-.64,1.25a.15.15,0,0,1-.21.07l-1.33-.69a.16.16,0,0,0-.23.17l.26,1.45a.18.18,0,0,1-.13.19l-1.41.19a.16.16,0,0,0-.09.27l1,1a.17.17,0,0,1,0,.23l-1,1a.16.16,0,0,0,.09.27l1.41.19a.16.16,0,0,1,.13.18l-.26,1.45a.16.16,0,0,0,.23.17l1.33-.69a.15.15,0,0,1,.21.07l.64,1.26a.16.16,0,0,0,.28,0l.58-1.2a.16.16,0,0,1,.22-.07l1.26.68a.16.16,0,0,0,.23-.17l-.25-1.52a.16.16,0,0,1,.13-.18l1.47-.23a.16.16,0,0,0,.09-.27l-1-.93A.17.17,0,0,1,244.81,329.36Z"/></svg>