<?xml version="1.0" encoding="utf-8"?>
<!-- Generator: Adobe Illustrator 26.0.1, SVG Export Plug-In . SVG Version: 6.00 Build 0)  -->
<svg version="1.1" id="Layer_1" xmlns="http://www.w3.org/2000/svg" xmlns:xlink="http://www.w3.org/1999/xlink" x="0px" y="0px"
	 viewBox="0 0 268.9 299.6" style="enable-background:new 0 0 268.9 299.6;" xml:space="preserve">
<style type="text/css">
	.st0{fill:none;stroke:#042303;stroke-width:4;stroke-miterlimit:10;}
	.st1{fill:#042303;}
	.st2{font-family:'HighTowerText-Reg';}
	.st3{font-size:41.78px;}
	.st4{font-size:41.8801px;}
	.st5{font-size:41.9239px;}
	.st6{font-family:'LombardiaScriptPERSONALUSE-Regular';}
	.st7{font-size:17.82px;}
	.st8{font-size:17.852px;}
	.st9{font-size:17.753px;}
	.st10{font-size:17.7647px;}
	.st11{font-size:17.8769px;}
	.st12{font-size:17.8423px;}
	.st13{font-family:'Montserrat-Regular';}
	.st14{font-size:16.94px;}
	.st15{fill:#052404;}
</style>
<circle class="st0" cx="122.3" cy="136.8" r="108.7"/>
<polyline class="st1" points="140.7,81.6 103.3,118.9 112.1,123.3 108.9,126.5 96,120.2 137.6,78.5 140.7,81.6 "/>
<polyline class="st1" points="147.3,94.2 144.3,91.2 111.6,123.9 108.4,127.1 102.6,132.8 127.1,144.8 127.4,145.1 130.9,141.9 
	130.3,141.6 109.9,131.6 112.4,129.1 115.6,125.9 147.2,94.3 147.3,94.2 "/>
<path class="st1" d="M144.8,148.7l-10.4-5.1l-3.2,3.2l8.9,4.4l-37.4,37.4l2.9,2.9l0.1,0.1l4.7-4.7l0.2-0.2l0,0l34.7-34.7
	c0.8-0.8,0.8-2,0.1-2.8C145.2,148.9,145,148.8,144.8,148.7z"/>
<path class="st1" d="M141,137.3l-22.4-10.8l-3.2,3.2l20.9,10.1l-37.3,37.4l2.9,2.9l0.1,0.1l4.7-4.7l0.2-0.2l0,0l34.7-34.7
	c0.8-0.8,0.8-2,0-2.8C141.4,137.5,141.2,137.4,141,137.3z"/>
<path class="st1" d="M97.8,181.3l-0.2-2.7c0,0,1.3-1.5,1.4-1.5l3,3l-1.5,1.4L97.8,181.3"/>
<path class="st1" d="M101.7,192.6l-0.2-2.7c0,0,1.3-1.5,1.4-1.6l3,3c0,0.1-1.5,1.4-1.5,1.4L101.7,192.6"/>
<path class="st1" d="M141.8,77.3L142,80c0,0-1.3,1.5-1.4,1.6l-3-3c0-0.1,1.5-1.4,1.5-1.4L141.8,77.3"/>
<path class="st1" d="M148.5,90l0.2,2.7c0,0-1.3,1.5-1.4,1.5l-3-3c0-0.1,1.5-1.4,1.5-1.4L148.5,90"/>
<text transform="matrix(0.3861 -0.9225 0.9225 0.3861 52.5301 118.0601)" class="st2 st3">S</text>
<text transform="matrix(0.6209 -0.7839 0.7839 0.6209 60.2101 98.7896)" class="st2 st3">y</text>
<text transform="matrix(0.7648 -0.6443 0.6443 0.7648 72.6701 83.4699)" class="st2 st3">l</text>
<text transform="matrix(0.8779 -0.4789 0.4789 0.8779 79.2792 76.8792)" class="st2 st4">v</text>
<text transform="matrix(0.9672 -0.2541 0.2541 0.9672 95.93 67.61)" class="st2 st3">a</text>
<text transform="matrix(0.9999 -1.204248e-02 1.204248e-02 0.9999 110.83 63.01)" class="st2 st3">n</text>
<text transform="matrix(0.9243 0.3816 -0.3816 0.9243 139.2804 63.6001)" class="st2 st3">S</text>
<text transform="matrix(0.816 0.578 -0.578 0.816 158.85 71.9399)" class="st2 st3">t</text>
<text transform="matrix(0.691 0.7228 -0.7228 0.691 168.5597 78.2501)" class="st2 st3">a</text>
<text transform="matrix(0.4983 0.867 -0.867 0.4983 179.7808 89.0999)" class="st2 st5">y</text>
<text transform="matrix(0.2862 0.9582 -0.9582 0.2862 189.4403 105.9201)" class="st2 st3">s</text>
<text transform="matrix(0.8468 0.5318 -0.5318 0.8468 66.6699 208.8601)" class="st6 st7">H</text>
<text transform="matrix(0.8984 0.4392 -0.4392 0.8984 78.8801 216.21)" class="st6 st8">o</text>
<text transform="matrix(0.9265 0.3762 -0.3762 0.9265 83.53 218.49)" class="st6 st7">li</text>
<text transform="matrix(0.9536 0.3011 -0.3011 0.9536 90.3697 221.2396)" class="st6 st9">d</text>
<text transform="matrix(0.973 0.2307 -0.2307 0.973 97.3701 223.4096)" class="st6 st10">a</text>
<text transform="matrix(0.9869 0.1611 -0.1611 0.9869 103.67 224.86)" class="st6 st7">y</text>
<text transform="matrix(0.9947 0.103 -0.103 0.9947 109.5 225.78)" class="st6 st7">s</text>
<text transform="matrix(0.9968 -7.974522e-02 7.974522e-02 0.9968 119.6606 226.9007)" class="st6 st11">U</text>
<text transform="matrix(0.9776 -0.2105 0.2105 0.9776 136.8228 225.78)" class="st6 st7">nl</text>
<text transform="matrix(0.96 -0.28 0.28 0.96 146.4983 223.7398)" class="st6 st7">i</text>
<text transform="matrix(0.9302 -0.3672 0.3672 0.9302 151.0501 221.6799)" class="st6 st7">m</text>
<text transform="matrix(0.9017 -0.4324 0.4324 0.9017 159.7701 218.1099)" class="st6 st7">i</text>
<text transform="matrix(0.8842 -0.4672 0.4672 0.8842 162.8501 216.6297)" class="st6 st7">t</text>
<text transform="matrix(0.8623 -0.5063 0.5063 0.8623 166.19 214.8699)" class="st6 st7">e</text>
<text transform="matrix(0.829 -0.5593 0.5593 0.829 170.1499 212.5804)" class="st6 st12">d</text>
<text transform="matrix(1 0 0 1 59.28 287.3)" class="st13 st14">Subma</text>
<text transform="matrix(1 0 0 1 120.57 287.3)" class="st13 st14">r</text>
<text transform="matrix(1 0 0 1 127.23 287.3)" class="st13 st14">k </text>
<text transform="matrix(1 0 0 1 141.85 287.3)" class="st13 st14">L</text>
<text transform="matrix(1 0 0 1 151.69 287.3)" class="st13 st14">ogo 2</text>
<path class="st15" d="M45.3,158.2l1.5-1.4c0.1-0.1,0.1-0.2,0-0.3c0,0-0.1-0.1-0.2-0.1l-2.3-0.3c-0.1,0-0.2-0.1-0.2-0.3c0,0,0,0,0,0
	l0.4-2.4c0-0.1-0.1-0.3-0.2-0.3c-0.1,0-0.1,0-0.2,0l-2,1.1c-0.1,0.1-0.3,0-0.3-0.1l-0.9-1.9c-0.1-0.1-0.2-0.2-0.3-0.1
	c0,0-0.1,0.1-0.1,0.1l-1,2c-0.1,0.1-0.2,0.2-0.3,0.1c0,0,0,0,0,0l-2.1-1.1c-0.1-0.1-0.3,0-0.3,0.1c0,0.1,0,0.1,0,0.2l0.4,2.2
	c0,0.1-0.1,0.3-0.2,0.3c0,0,0,0,0,0l-2.2,0.3c-0.1,0-0.2,0.1-0.2,0.3c0,0.1,0,0.1,0.1,0.1l1.6,1.6c0.1,0.1,0.1,0.2,0,0.3
	c0,0,0,0,0,0l-1.6,1.6c-0.1,0.1-0.1,0.2,0,0.3c0,0,0.1,0.1,0.1,0.1l2.2,0.3c0.1,0,0.2,0.1,0.2,0.3c0,0,0,0,0,0l-0.4,2.2
	c0,0.1,0.1,0.3,0.2,0.3c0.1,0,0.1,0,0.2,0l2.1-1.1c0.1-0.1,0.3,0,0.3,0.1l1,2c0.1,0.1,0.2,0.2,0.3,0.1c0,0,0.1-0.1,0.1-0.1l0.9-1.9
	c0.1-0.1,0.2-0.2,0.3-0.1l2,1.1c0.1,0.1,0.3,0,0.3-0.1c0-0.1,0-0.1,0-0.2l-0.4-2.4c0-0.1,0.1-0.3,0.2-0.3c0,0,0,0,0,0l2.3-0.4
	c0.1,0,0.2-0.1,0.2-0.3c0-0.1,0-0.1-0.1-0.2l-1.5-1.4c-0.1,0-0.2-0.2-0.2-0.3C45.1,158.3,45.2,158.2,45.3,158.2z"/>
<path class="st15" d="M208.4,158.2l1.5-1.4c0.1-0.1,0.1-0.2,0-0.3c0,0-0.1-0.1-0.2-0.1l-2.3-0.4c-0.1,0-0.2-0.1-0.2-0.3c0,0,0,0,0,0
	l0.4-2.4c0-0.1-0.1-0.3-0.2-0.3c-0.1,0-0.1,0-0.2,0l-2,1.1c-0.1,0.1-0.3,0-0.3-0.1l-0.9-1.9c-0.1-0.1-0.2-0.2-0.3-0.1
	c-0.1,0-0.1,0.1-0.1,0.1l-1,2c-0.1,0.1-0.2,0.2-0.3,0.1c0,0,0,0,0,0l-2.1-1.1c-0.1-0.1-0.3,0-0.3,0.1c0,0,0,0.1,0,0.1l0.4,2.2
	c0,0.1-0.1,0.3-0.2,0.3c0,0,0,0,0,0l-2.2,0.3c-0.1,0-0.2,0.1-0.2,0.3c0,0.1,0,0.1,0.1,0.1l1.6,1.6c0.1,0.1,0.1,0.2,0,0.3
	c0,0,0,0,0,0l-1.6,1.6c-0.1,0.1-0.1,0.2,0,0.3c0,0,0.1,0.1,0.1,0.1l2.2,0.3c0.1,0,0.2,0.1,0.2,0.3c0,0,0,0,0,0l-0.4,2.2
	c0,0.1,0.1,0.3,0.2,0.3c0.1,0,0.1,0,0.1,0l2.1-1.1c0.1-0.1,0.3,0,0.3,0.1l1,2c0.1,0.1,0.2,0.2,0.3,0.1c0.1,0,0.1-0.1,0.1-0.1
	l0.9-1.9c0.1-0.1,0.2-0.2,0.3-0.1l2,1.1c0.1,0.1,0.3,0,0.3-0.1c0-0.1,0-0.1,0-0.2l-0.4-2.4c0-0.1,0-0.2,0.2-0.3c0,0,0,0,0,0l2.3-0.4
	c0.2,0,0.3,0,0.4-0.2c0-0.2,0-0.3-0.2-0.4l0,0l-1.5-1.4C208.4,158.5,208.4,158.3,208.4,158.2z"/>
<path class="st1" d="M59.3,193.6c-16.9-19.9-23.5-46.6-17.7-72c-0.3,0-0.7,0-1,0c-5.8,25.8,0.9,52.8,18.1,72.8
	C58.9,194.1,59.1,193.8,59.3,193.6z"/>
<path class="st1" d="M187.1,192c0.2,0.2,0.5,0.4,0.7,0.7c14.7-18.1,21.1-41.4,17.9-64.4l-0.9,0.2c0.5,3.8,0.8,7.7,0.8,11.5
	C205.6,158.9,199.1,177.3,187.1,192z"/>
</svg>
