<svg id="Layer_1" data-name="Layer 1" xmlns="http://www.w3.org/2000/svg" viewBox="0 0 221.92 257.31"><defs><style>.cls-1{font-size:50.72px;font-family:HighTowerText-Reg, High Tower Text;}.cls-1,.cls-2,.cls-4{fill:#052404;}.cls-2{font-size:17.65px;font-family:LombardiaScriptPERSONALUSE-Regular, Lombardia Script PERSONAL USE;}.cls-3{fill:none;stroke:#052404;stroke-miterlimit:10;}.cls-5{fill:#042303;}.cls-6{font-size:16.94px;font-family:Montserrat-Regular, Montserrat;}.cls-7{letter-spacing:-0.01em;}.cls-8{letter-spacing:-0.01em;}</style></defs><text class="cls-1" transform="translate(72.9 87.97)">Sylvan <tspan x="0" y="41.57">Stays</tspan></text><text class="cls-2" transform="translate(76.41 162.03)">Holidays Unlimited</text><line class="cls-3" x1="82.22" y1="141.41" x2="140.44" y2="141.41"/><path class="cls-4" d="M80.53,141.35l.58-.56a.1.1,0,0,0,0-.17l-.88-.13a.1.1,0,0,1-.08-.11l.15-.91a.1.1,0,0,0-.14-.1l-.76.4a.09.09,0,0,1-.13,0l-.35-.72a.09.09,0,0,0-.17,0l-.38.75a.08.08,0,0,1-.12,0l-.81-.41a.09.09,0,0,0-.13.1l.15.87a.09.09,0,0,1-.08.11l-.84.12a.09.09,0,0,0,0,.16l.6.6a.09.09,0,0,1,0,.13l-.6.6a.09.09,0,0,0,0,.16l.84.12a.09.09,0,0,1,.08.11l-.15.87a.09.09,0,0,0,.13.1l.81-.41a.08.08,0,0,1,.12,0l.38.75a.09.09,0,0,0,.17,0l.35-.72a.09.09,0,0,1,.13,0l.76.4a.1.1,0,0,0,.14-.1l-.15-.91a.1.1,0,0,1,.08-.11l.88-.13a.1.1,0,0,0,0-.17l-.58-.56A.09.09,0,0,1,80.53,141.35Z"/><polyline class="cls-5" points="55.74 38.46 16.4 77.79 25.72 82.36 22.36 85.72 8.77 79.06 52.55 35.27 55.74 38.46"/><polyline class="cls-5" points="62.71 51.74 59.53 48.55 25.12 82.96 21.76 86.33 15.74 92.34 41.48 104.97 41.81 105.25 45.42 101.94 44.85 101.6 23.38 91.07 26.03 88.42 29.39 85.06 62.56 51.89 62.71 51.74"/><path class="cls-5" d="M60.06,109.06,49.12,103.7l-3.36,3.36,9.32,4.57L15.77,150.94l3,3,.14.14,5-5,.21-.22,0,0,36.47-36.46A2.12,2.12,0,0,0,60.06,109.06Z"/><path class="cls-5" d="M56.13,97.07,32.58,85.7l-3.37,3.36L51.14,99.64l-39.31,39.3,3,3.05.15.14L20,137.18l.22-.22,0,0,36.46-36.47A2.1,2.1,0,0,0,56.13,97.07Z"/><path class="cls-5" d="M10.64,143.33l-.17-2.82s1.36-1.59,1.42-1.62l3.19,3.19s-1.62,1.42-1.62,1.42l-2.82-.17"/><path class="cls-5" d="M14.7,155.19l-.17-2.82s1.37-1.59,1.43-1.62l3.19,3.18c0,.06-1.63,1.43-1.63,1.43l-2.82-.17"/><path class="cls-5" d="M57,34l.17,2.82s-1.37,1.6-1.43,1.63L52.52,35.3s1.62-1.42,1.62-1.42L57,34"/><path class="cls-5" d="M64,47.33l.17,2.82s-1.37,1.59-1.42,1.62l-3.19-3.19s1.62-1.42,1.62-1.42l2.82.17"/><text class="cls-6" transform="translate(54.45 244.74)">Subma<tspan class="cls-7" x="61.29" y="0">r</tspan><tspan x="67.95" y="0">k </tspan><tspan class="cls-8" x="82.57" y="0">L</tspan><tspan x="92.41" y="0">ogo 1</tspan></text></svg>