<svg id="Layer_1" data-name="Layer 1" xmlns="http://www.w3.org/2000/svg" viewBox="0 0 529.47 305.95"><defs><style>.cls-1{font-size:81.67px;font-family:HighTowerText-Reg, High Tower Text;}.cls-1,.cls-2,.cls-4{fill:#052404;}.cls-2{font-size:37.38px;font-family:LombardiaScriptPERSONALUSE-Regular, Lombardia Script PERSONAL USE;}.cls-3{fill:none;stroke:#052404;stroke-miterlimit:10;}.cls-5{font-size:16.94px;font-family:Montserrat-Regular, Montserrat;}.cls-6{letter-spacing:-0.05em;}.cls-7{letter-spacing:-0.01em;}.cls-8{letter-spacing:-0.01em;}</style></defs><text class="cls-1" transform="translate(54.8 101.53)">Sylvan Stays</text><text class="cls-2" transform="translate(156.45 159.15)">Holidays Unlimited</text><line class="cls-3" x1="147.71" y1="118.99" x2="267.84" y2="118.99"/><line class="cls-3" x1="282.07" y1="118.99" x2="402.2" y2="118.99"/><path class="cls-4" d="M278.57,118.85l1.2-1.16a.2.2,0,0,0-.1-.34l-1.82-.28a.19.19,0,0,1-.16-.22L278,115a.2.2,0,0,0-.29-.2l-1.56.84a.2.2,0,0,1-.27-.09l-.72-1.49a.19.19,0,0,0-.35,0l-.79,1.55a.19.19,0,0,1-.26.09l-1.66-.85a.19.19,0,0,0-.28.2l.32,1.8a.2.2,0,0,1-.16.23l-1.74.24a.19.19,0,0,0-.11.33l1.25,1.24a.19.19,0,0,1,0,.28l-1.25,1.23a.2.2,0,0,0,.11.34l1.74.23a.2.2,0,0,1,.16.23l-.32,1.8a.2.2,0,0,0,.28.21l1.66-.85a.19.19,0,0,1,.26.08l.79,1.56a.2.2,0,0,0,.35,0l.72-1.5a.2.2,0,0,1,.27-.09l1.56.84a.2.2,0,0,0,.29-.2l-.31-1.89a.2.2,0,0,1,.16-.22l1.82-.28a.19.19,0,0,0,.1-.33l-1.2-1.16A.19.19,0,0,1,278.57,118.85Z"/><text class="cls-5" transform="translate(203.95 254.39)"><tspan class="cls-6">W</tspan><tspan x="17.89" y="0">o</tspan><tspan class="cls-7" x="28.52" y="0">r</tspan><tspan x="35.09" y="0">dma</tspan><tspan class="cls-8" x="74.55" y="0">r</tspan><tspan x="81.21" y="0">k logo</tspan></text></svg>